 <svg  version="1.0" xmlns="http://www.w3.org/2000/svg"  width="300.000000pt" height="196.000000pt" viewBox="0 0 300.000000 196.000000"  preserveAspectRatio="xMidYMid meet">  <g transform="translate(0.000000,196.000000) scale(0.100000,-0.100000)" fill="#ffffff" stroke="none"> <path d="M438 1863 c-40 -49 -73 -90 -75 -92 -1 -2 -39 29 -84 69 l-82 73 -35 -39 c-19 -21 -59 -64 -88 -95 l-54 -57 99 -91 99 -91 28 34 c16 18 52 58 81 90 l52 56 44 -57 c25 -32 59 -71 76 -87 l31 -29 19 24 c10 13 51 65 90 114 l72 90 -93 87 c-51 48 -96 87 -100 88 -4 0 -40 -39 -80 -87z m156 -32 c32 -32 57 -63 55 -69 -8 -20 -105 -141 -118 -147 -8 -3 -28 11 -50 37 -20 23 -49 54 -64 70 l-28 27 58 70 c32 38 65 70 73 70 9 1 42 -26 74 -58z m-348 -12 c16 -17 44 -39 62 -51 17 -11 32 -25 32 -31 0 -7 -29 -41 -64 -76 l-64 -64 -66 63 -65 63 19 26 c35 48 89 101 103 101 7 0 26 -14 43 -31z"/> <path d="M2705 1854 c-88 -30 -166 -56 -173 -59 -8 -3 13 -35 58 -90 38 -48 70 -90 70 -94 0 -4 -26 -13 -57 -21 l-58 -15 -3 -44 c-2 -24 -1 -49 1 -56 4 -9 60 -1 219 31 117 24 214 44 216 44 1 0 2 32 2 71 0 62 -2 70 -16 65 -30 -11 -168 -48 -187 -50 -13 -1 -23 13 -38 54 -10 30 -19 56 -19 57 0 2 10 1 23 -1 12 -3 48 -8 80 -11 l57 -6 0 90 c0 50 -3 91 -7 90 -5 -1 -80 -25 -168 -55z m133 -33 c5 -33 -12 -46 -57 -42 -29 2 -45 -4 -66 -22 l-28 -23 17 -51 c9 -28 26 -59 37 -69 18 -16 25 -17 82 -4 115 25 117 25 117 1 0 -13 -9 -25 -22 -31 -29 -12 -279 -60 -314 -60 -35 0 -26 21 14 34 17 6 41 21 54 33 19 19 20 25 9 49 -6 14 -27 46 -46 69 -19 23 -35 49 -35 57 0 9 36 27 108 51 59 20 112 35 117 33 6 -1 12 -13 13 -25z"/> <path d="M440 1459 c-69 -16 -153 -33 -187 -40 l-61 -11 -78 -131 c-42 -73 -84 -142 -92 -155 -14 -22 -11 -27 115 -154 l131 -131 223 149 c123 81 226 149 228 151 7 4 -135 347 -144 349 -6 1 -66 -11 -135 -27z m132 -46 c6 -16 17 -41 24 -58 30 -72 74 -186 74 -195 0 -8 -324 -230 -377 -259 -21 -11 -31 -3 -128 91 -58 57 -105 108 -105 114 0 6 18 39 41 74 22 35 44 73 49 84 15 39 69 104 92 112 35 11 270 61 296 63 16 1 26 -7 34 -26z"/> <path d="M375 1264 c-126 -71 -148 -101 -105 -139 20 -18 22 -17 95 20 91 47 145 90 145 115 0 16 -34 50 -50 50 -3 0 -41 -21 -85 -46z m112 0 c1 -5 -43 -35 -99 -67 -75 -42 -105 -54 -112 -46 -7 8 -8 13 -1 16 6 2 51 28 100 58 88 52 106 58 112 39z"/> <path d="M2776 1428 c-2 -7 -13 -110 -25 -228 -12 -118 -26 -249 -31 -290 -8 -64 -37 -327 -56 -510 -3 -30 -7 -63 -10 -72 -5 -17 5 -18 120 -18 l126 0 0 548 0 549 -42 12 c-24 7 -51 15 -61 17 -9 3 -19 -1 -21 -8z m84 -568 l0 -510 -80 0 c-72 0 -80 2 -80 19 0 18 56 541 65 606 2 17 7 57 10 90 17 181 33 302 42 318 2 4 13 2 24 -3 18 -10 19 -26 19 -520z"/> <path d="M1230 1321 c-41 -27 -124 -79 -185 -116 -60 -37 -173 -107 -250 -155 -77 -48 -194 -120 -260 -160 -180 -110 -178 -90 -22 -197 l134 -91 49 63 c81 104 246 305 254 310 4 2 65 -54 136 -125 70 -72 132 -130 138 -130 12 0 636 373 636 380 0 6 -525 264 -544 267 -6 1 -45 -19 -86 -46z m323 -108 c119 -59 217 -112 217 -118 0 -12 -521 -325 -541 -325 -8 0 -65 52 -127 115 -62 62 -122 117 -133 120 -32 10 -56 -12 -189 -178 -79 -99 -132 -156 -144 -156 -10 -1 -57 24 -103 55 -65 42 -82 58 -74 68 9 11 142 96 206 132 30 17 585 363 609 380 11 8 30 14 41 14 11 0 118 -48 238 -107z"/> <path d="M1235 1180 c-12 -13 -15 -27 -11 -45 9 -35 88 -119 127 -135 27 -12 33 -11 52 9 l22 21 -20 36 c-20 38 -121 134 -140 134 -7 0 -20 -9 -30 -20z m92 -72 c61 -60 77 -88 50 -88 -19 0 -140 126 -133 139 11 18 17 14 83 -51z"/> <path d="M2590 1280 l-45 -18 -68 -343 c-38 -189 -69 -344 -70 -345 -3 -1 -425 -164 -492 -190 -376 -141 -493 -194 -431 -194 8 0 95 -25 193 -56 98 -30 227 -70 287 -89 l109 -34 96 82 c53 46 155 132 226 191 72 60 135 115 141 122 6 8 14 44 18 82 9 88 85 726 93 775 6 42 5 42 -57 17z m5 -107 c-7 -68 -14 -130 -20 -164 -2 -13 -9 -71 -15 -129 -22 -217 -51 -434 -60 -451 -6 -10 -31 -35 -57 -56 -56 -45 -80 -65 -149 -124 -28 -24 -75 -64 -104 -89 -30 -25 -68 -57 -86 -72 -17 -16 -40 -28 -50 -28 -11 0 -59 13 -109 29 -49 16 -150 48 -222 71 -73 22 -133 45 -133 49 0 9 35 24 365 151 116 44 264 102 330 127 127 50 159 74 168 126 23 129 120 584 128 599 16 31 20 20 14 -39z"/> <path d="M2305 1219 c-71 -38 -227 -120 -345 -181 -118 -61 -221 -116 -228 -122 -10 -10 6 -27 79 -87 50 -41 106 -85 125 -99 18 -14 34 -27 34 -30 0 -3 -126 -4 -280 -2 l-280 3 0 -206 c0 -193 1 -207 18 -200 9 4 46 18 82 32 36 13 207 80 380 148 173 67 331 128 350 135 l35 12 47 182 c72 276 118 449 124 469 3 9 2 17 -3 16 -4 -1 -66 -32 -138 -70z m75 -30 c0 -23 -114 -467 -132 -511 -8 -23 -28 -34 -117 -69 -58 -22 -155 -61 -216 -84 -287 -113 -396 -154 -429 -164 l-36 -9 -1 46 c-2 157 3 247 14 254 7 4 118 8 248 8 217 0 239 2 260 19 20 16 22 22 12 44 -6 13 -50 55 -97 93 -47 38 -84 75 -83 83 2 17 4 18 247 144 102 53 214 111 250 131 78 41 80 42 80 15z"/> <path d="M2130 985 c-112 -54 -133 -81 -92 -118 27 -24 43 -22 133 23 85 43 113 76 92 108 -17 28 -54 24 -133 -13z m120 0 c0 -22 -186 -113 -201 -98 -9 9 13 24 87 62 111 56 114 57 114 36z"/> </g> </svg> 