<?xml version="1.0" standalone="no"?>
<!DOCTYPE svg PUBLIC "-//W3C//DTD SVG 20010904//EN"
 "http://www.w3.org/TR/2001/REC-SVG-20010904/DTD/svg10.dtd">
<svg version="1.0" xmlns="http://www.w3.org/2000/svg"
 width="445.000000pt" height="291.000000pt" viewBox="0 0 445.000000 291.000000"
 preserveAspectRatio="xMidYMid meet">
<metadata>
Created by potrace 1.10, written by Peter Selinger 2001-2011
</metadata>
<g transform="translate(0.000000,291.000000) scale(0.100000,-0.100000)"
fill="#461a19" stroke="none">
<path d="M660 2789 c-52 -61 -102 -120 -111 -131 -15 -19 -19 -17 -133 81 -65
56 -121 101 -125 101 -5 0 -66 -64 -137 -142 l-128 -141 139 -133 c77 -74 145
-134 151 -134 7 0 64 56 127 124 l116 124 101 -119 c59 -70 108 -119 119 -119
11 0 67 62 150 168 l132 167 -138 132 c-76 73 -145 132 -153 133 -8 0 -58 -50
-110 -111z"/>
<path d="M3993 2751 c-139 -47 -253 -90 -253 -94 0 -5 45 -65 100 -135 55 -70
96 -129 92 -133 -7 -5 -38 -15 -129 -39 l-43 -11 0 -79 c0 -45 5 -82 11 -85 5
-4 156 22 335 57 l324 63 0 108 c0 89 -3 107 -15 107 -8 0 -81 -18 -162 -40
-80 -23 -149 -37 -153 -33 -12 14 -52 134 -46 140 3 3 51 1 108 -4 57 -5 104
-9 105 -9 0 1 4 63 8 139 7 130 7 137 -11 136 -11 -1 -133 -40 -271 -88z"/>
<path d="M572 2155 c-156 -34 -289 -68 -296 -76 -7 -8 -70 -110 -140 -226
-101 -170 -125 -216 -117 -230 5 -10 93 -101 195 -202 l185 -185 341 227 340
227 -13 33 c-7 17 -56 137 -107 265 -52 127 -97 231 -100 231 -3 -1 -132 -29
-288 -64z m133 -291 c-5 -3 -71 -40 -145 -84 -93 -54 -137 -75 -142 -67 -4 7
0 16 10 21 9 5 73 43 142 83 88 51 128 69 135 61 7 -7 7 -12 0 -14z"/>
<path d="M4124 2133 c-7 -5 -45 -319 -98 -803 -47 -437 -89 -814 -92 -838 l-6
-42 188 2 189 3 3 820 2 821 -67 17 c-38 10 -77 20 -88 22 -11 3 -25 2 -31 -2z"/>
<path d="M1274 1627 c-655 -408 -714 -447 -714 -463 1 -16 402 -277 408 -267
4 6 106 133 227 282 l220 272 192 -193 c121 -122 199 -193 211 -192 22 0 952
554 952 566 0 9 -808 408 -824 407 -6 0 -308 -186 -672 -412z m776 -101 c-14
-14 -200 171 -193 191 4 10 36 -15 104 -83 66 -66 95 -102 89 -108z"/>
<path d="M3848 1909 c-70 -28 -78 -33 -83 -62 -4 -18 -50 -247 -103 -510 l-97
-479 -685 -265 c-377 -146 -693 -273 -703 -282 -16 -16 7 -24 430 -155 247
-77 453 -139 460 -140 10 -1 176 137 690 570 21 18 27 60 98 659 41 352 77
652 80 668 2 15 1 27 -3 26 -4 0 -42 -14 -84 -30z"/>
<path d="M3095 1646 c-367 -192 -540 -287 -540 -298 0 -9 79 -80 175 -159
l175 -144 -413 -3 -412 -2 0 -310 c0 -171 2 -310 5 -310 7 0 1288 500 1293
504 6 7 263 989 260 997 -2 4 -246 -119 -543 -275z m225 -191 c0 -21 -259
-150 -273 -136 -6 6 -9 12 -6 15 7 7 264 135 272 135 4 1 7 -6 7 -14z"/>
</g>
</svg>
