 <svg  version="1.0" xmlns="http://www.w3.org/2000/svg"  width="1335.000000pt" height="873.000000pt" viewBox="0 0 1335.000000 873.000000"  preserveAspectRatio="xMidYMid meet">  <g transform="translate(0.000000,873.000000) scale(0.100000,-0.100000)" fill="#ffffff" stroke="none"> <path d="M2218 8651 c-21 -22 -38 -46 -38 -55 0 -8 -40 -55 -90 -104 -49 -49 -90 -97 -90 -105 0 -9 -40 -56 -90 -105 -49 -49 -90 -97 -90 -105 0 -9 -40 -56 -90 -105 -49 -49 -90 -97 -90 -106 0 -17 -34 -56 -49 -56 -5 0 -11 7 -15 15 -3 8 -14 15 -25 15 -12 0 -56 36 -109 90 -49 50 -97 90 -105 90 -9 0 -56 41 -105 90 -49 50 -97 90 -105 90 -9 0 -56 41 -105 90 -54 54 -97 90 -110 90 -11 0 -22 7 -26 15 -3 8 -13 15 -22 15 -20 0 -244 -223 -244 -244 0 -8 -61 -76 -135 -149 -74 -74 -135 -142 -135 -150 0 -9 -61 -77 -135 -150 -74 -74 -135 -140 -135 -147 0 -18 436 -450 454 -450 8 0 96 -81 194 -180 145 -145 185 -180 207 -180 21 0 59 32 186 159 87 88 159 166 159 175 0 8 81 96 180 194 120 120 180 187 180 201 0 12 4 21 9 21 17 0 141 -130 141 -147 0 -9 34 -49 75 -90 41 -40 75 -81 75 -90 0 -8 41 -56 90 -105 50 -49 90 -96 90 -104 0 -9 38 -54 84 -100 79 -79 87 -84 126 -84 36 0 48 6 81 39 22 21 39 46 39 55 0 9 27 42 60 74 33 33 60 66 60 75 0 9 27 43 60 75 33 33 60 66 60 76 0 9 20 36 45 59 25 24 45 51 45 60 0 9 27 43 60 75 33 33 60 66 60 75 0 9 27 43 60 75 33 33 60 66 60 75 0 9 27 43 60 75 35 34 60 68 60 79 0 12 7 24 16 27 12 4 -29 51 -159 181 -96 96 -182 175 -190 175 -9 0 -117 101 -240 225 l-225 225 -43 0 c-38 -1 -49 -6 -81 -39z"/> <path d="M12714 8496 c-4 -11 -19 -16 -45 -16 -26 0 -42 -5 -45 -15 -4 -10 -20 -15 -45 -15 -26 0 -42 -5 -45 -15 -4 -8 -17 -15 -30 -15 -14 0 -27 -7 -30 -15 -4 -10 -20 -15 -45 -15 -26 0 -42 -5 -45 -15 -4 -10 -20 -15 -45 -15 -26 0 -42 -5 -45 -15 -4 -10 -20 -15 -45 -15 -26 0 -42 -5 -45 -15 -4 -10 -20 -15 -45 -15 -26 0 -42 -5 -45 -15 -4 -10 -20 -15 -45 -15 -26 0 -42 -5 -45 -15 -4 -10 -20 -15 -45 -15 -26 0 -42 -5 -45 -15 -4 -10 -20 -15 -45 -15 -26 0 -42 -5 -45 -15 -4 -10 -20 -15 -45 -15 -26 0 -42 -5 -45 -15 -4 -10 -20 -15 -45 -15 -26 0 -42 -5 -45 -15 -4 -10 -20 -15 -45 -15 -26 0 -42 -5 -45 -15 -4 -10 -20 -15 -45 -15 -26 0 -42 -5 -45 -15 -4 -10 -20 -15 -45 -15 -26 0 -42 -5 -45 -15 -4 -10 -20 -15 -45 -15 -22 0 -41 -6 -46 -14 -4 -8 -26 -16 -48 -18 -37 -3 -40 -5 -43 -37 -3 -28 3 -39 42 -77 25 -24 46 -51 46 -60 0 -10 27 -43 60 -76 33 -32 60 -66 60 -75 0 -9 27 -42 60 -75 33 -32 60 -66 60 -75 0 -9 20 -36 45 -60 25 -23 45 -50 45 -59 0 -10 27 -43 60 -76 33 -32 60 -66 60 -76 0 -10 13 -29 30 -42 35 -30 36 -34 10 -60 -15 -15 -33 -20 -70 -20 -36 0 -52 -4 -56 -15 -4 -10 -20 -15 -45 -15 -26 0 -42 -5 -45 -15 -5 -11 -21 -15 -60 -15 -39 0 -56 -4 -60 -15 -5 -11 -21 -15 -60 -15 -35 0 -56 -5 -61 -14 -4 -8 -19 -16 -33 -18 l-25 -3 -3 -228 c-2 -226 -2 -229 20 -253 20 -20 33 -24 86 -24 47 0 64 4 68 15 5 11 23 15 75 15 53 0 71 4 75 15 5 11 23 15 75 15 53 0 71 4 75 15 5 11 23 15 75 15 53 0 71 4 75 15 5 11 23 15 75 15 53 0 71 4 75 15 5 11 23 15 75 15 53 0 71 4 75 15 5 11 23 15 75 15 53 0 71 4 75 15 5 11 23 15 75 15 53 0 71 4 75 15 5 11 23 15 75 15 53 0 71 4 75 15 5 11 23 15 75 15 53 0 71 4 75 15 5 12 25 15 90 15 66 0 86 3 90 15 5 11 23 15 75 15 49 0 70 4 76 14 6 10 30 16 78 18 l70 3 0 325 0 325 -68 3 c-53 2 -68 0 -73 -13 -4 -10 -19 -15 -45 -15 -26 0 -42 -5 -45 -15 -5 -11 -21 -15 -60 -15 -39 0 -56 -4 -60 -15 -5 -11 -21 -15 -60 -15 -39 0 -56 -4 -60 -15 -4 -10 -20 -15 -45 -15 -26 0 -42 -5 -45 -15 -5 -11 -21 -15 -60 -15 -39 0 -56 -4 -60 -15 -5 -11 -21 -15 -60 -15 -39 0 -56 -4 -60 -15 -4 -10 -20 -15 -45 -15 -26 0 -42 -5 -45 -15 -4 -10 -20 -15 -45 -15 -50 0 -79 27 -79 75 0 22 -6 38 -15 41 -10 4 -15 20 -15 45 0 26 -5 42 -15 45 -10 4 -15 20 -15 45 0 26 -5 42 -15 45 -8 4 -15 17 -15 30 0 14 -7 27 -15 30 -10 4 -15 20 -15 50 l0 44 134 0 c110 0 135 -3 140 -15 4 -12 32 -15 165 -15 135 0 160 -2 165 -16 3 -9 15 -14 28 -12 23 3 23 4 26 192 2 154 5 191 17 200 13 9 15 44 13 226 l-3 215 -53 3 c-40 2 -54 -1 -58 -12z"/> <path d="M2544 6636 c-5 -12 -20 -16 -60 -16 -39 0 -56 -4 -60 -15 -5 -11 -23 -15 -75 -15 -53 0 -71 -4 -75 -15 -5 -11 -21 -15 -60 -15 -39 0 -56 -4 -60 -15 -5 -11 -23 -15 -75 -15 -53 0 -71 -4 -75 -15 -5 -11 -23 -15 -75 -15 -53 0 -71 -4 -75 -15 -5 -11 -21 -15 -60 -15 -39 0 -56 -4 -60 -15 -5 -11 -23 -15 -75 -15 -53 0 -71 -4 -75 -15 -5 -11 -23 -15 -75 -15 -53 0 -71 -4 -75 -15 -5 -11 -21 -15 -60 -15 -39 0 -56 -4 -60 -15 -5 -11 -23 -15 -75 -15 -53 0 -71 -4 -75 -15 -5 -11 -23 -15 -75 -15 -53 0 -71 -4 -75 -15 -5 -11 -21 -15 -60 -15 -39 0 -56 -4 -60 -15 -4 -8 -15 -15 -26 -15 -26 0 -98 -72 -98 -98 0 -11 -7 -22 -15 -26 -8 -3 -15 -16 -15 -28 -1 -13 -14 -34 -30 -48 -17 -13 -30 -34 -30 -46 0 -12 -7 -24 -15 -28 -8 -3 -15 -16 -15 -28 -1 -13 -14 -34 -30 -48 -17 -13 -30 -34 -30 -46 0 -12 -7 -24 -15 -28 -8 -3 -15 -16 -15 -28 -1 -13 -14 -34 -30 -48 -17 -13 -30 -34 -30 -46 0 -12 -7 -24 -15 -28 -8 -3 -15 -16 -15 -28 -1 -13 -14 -34 -30 -48 -17 -13 -30 -34 -30 -46 0 -12 -7 -24 -15 -28 -8 -3 -15 -16 -15 -28 -1 -13 -14 -34 -30 -48 -17 -13 -30 -34 -30 -46 0 -12 -7 -24 -15 -28 -8 -3 -15 -16 -15 -28 -1 -13 -14 -34 -30 -48 -17 -13 -30 -34 -30 -46 0 -12 -7 -24 -15 -28 -8 -3 -15 -16 -15 -28 -1 -13 -14 -34 -30 -48 -17 -13 -30 -34 -30 -46 0 -12 -7 -24 -15 -28 -8 -3 -15 -16 -15 -28 -1 -13 -14 -34 -30 -48 -17 -13 -30 -34 -30 -46 0 -12 -7 -24 -15 -28 -19 -7 -19 -45 0 -52 8 -4 15 -15 15 -26 0 -24 1120 -1148 1144 -1148 9 0 19 7 22 15 4 8 16 15 28 15 12 0 33 13 46 30 14 16 34 29 45 30 12 0 32 13 45 30 14 16 34 29 45 30 12 0 32 13 45 30 14 16 34 29 45 30 12 0 32 13 45 30 14 16 34 29 45 30 12 0 32 13 45 30 14 16 34 29 45 30 12 0 32 13 45 30 14 16 34 29 45 30 12 0 32 13 45 30 14 16 34 29 45 30 12 0 32 13 45 30 14 16 34 29 45 30 12 0 32 13 45 30 14 16 34 29 45 30 12 0 32 13 45 30 14 16 34 29 45 30 12 0 32 13 45 30 14 16 34 29 45 30 12 0 32 13 45 30 14 16 34 29 45 30 12 0 32 13 45 30 14 16 34 29 45 30 12 0 32 13 45 30 14 16 34 29 45 30 12 0 32 13 45 30 14 16 34 29 45 30 12 0 32 13 45 30 14 16 34 29 45 30 12 0 32 13 45 30 14 16 34 29 45 30 12 0 32 13 45 30 14 16 34 29 45 30 12 0 32 13 45 30 14 16 34 29 45 30 12 0 32 13 45 30 14 16 34 29 45 30 12 0 32 13 45 30 14 16 33 29 44 30 10 0 36 18 58 40 33 32 37 41 24 46 -11 4 -16 19 -16 45 0 26 -5 42 -15 45 -8 4 -15 17 -15 30 0 14 -7 27 -15 30 -10 4 -15 20 -15 45 0 26 -5 42 -15 45 -8 4 -15 17 -15 30 0 14 -7 27 -15 30 -10 4 -15 20 -15 45 0 26 -5 42 -15 45 -8 4 -15 17 -15 30 0 14 -7 27 -15 30 -10 4 -15 20 -15 45 0 26 -5 42 -15 45 -8 4 -15 17 -15 30 0 14 -7 27 -15 30 -10 4 -15 20 -15 45 0 26 -5 42 -15 45 -8 4 -15 17 -15 30 0 14 -7 27 -15 30 -8 4 -15 17 -15 30 0 14 -7 27 -15 30 -10 4 -15 20 -15 45 0 26 -5 42 -15 45 -8 4 -15 17 -15 30 0 14 -7 27 -15 30 -10 4 -15 20 -15 45 0 26 -5 42 -15 45 -8 4 -15 17 -15 30 0 14 -7 27 -15 30 -10 4 -15 20 -15 45 0 26 -5 42 -15 45 -8 4 -15 17 -15 30 0 14 -7 27 -15 30 -10 4 -15 20 -15 45 0 26 -5 42 -15 45 -8 4 -15 17 -15 30 0 14 -7 27 -15 30 -10 4 -15 20 -15 45 0 22 -6 41 -14 46 -8 4 -16 19 -18 33 -4 29 -44 41 -54 16z m-444 -996 c11 -11 20 -31 20 -45 0 -20 -5 -25 -25 -25 -14 0 -28 -7 -31 -15 -4 -8 -17 -15 -30 -15 -14 0 -27 -7 -30 -15 -4 -8 -16 -15 -28 -15 -12 0 -33 -13 -46 -30 -14 -16 -35 -29 -48 -30 -12 0 -25 -7 -28 -15 -4 -8 -16 -15 -28 -15 -12 0 -33 -13 -46 -30 -14 -16 -35 -29 -48 -30 -12 0 -25 -7 -28 -15 -4 -8 -17 -15 -30 -15 -14 0 -27 -7 -30 -15 -4 -8 -16 -15 -28 -15 -12 0 -33 -13 -46 -30 -14 -16 -35 -29 -48 -30 -12 0 -25 -7 -28 -15 -4 -8 -16 -15 -28 -15 -12 0 -33 -13 -46 -30 -14 -16 -35 -29 -48 -30 -12 0 -25 -7 -28 -15 -4 -8 -17 -15 -30 -15 -14 0 -27 -7 -30 -15 -10 -25 -34 -17 -34 10 0 14 -7 28 -15 31 -25 10 -17 34 10 34 14 0 28 7 31 15 4 8 16 15 28 15 12 0 33 13 46 30 14 16 35 29 48 30 12 0 25 7 28 15 4 8 17 15 30 15 14 0 27 7 30 15 4 8 16 15 28 15 12 0 33 13 46 30 14 16 35 29 48 30 12 0 25 7 28 15 4 8 16 15 28 15 12 0 33 13 46 30 14 16 35 29 48 30 12 0 25 7 28 15 4 8 17 15 30 15 14 0 27 7 30 15 4 8 16 15 28 15 12 0 33 13 46 30 14 16 35 29 48 30 12 0 25 7 28 15 4 8 17 15 30 15 14 0 27 7 30 15 8 20 20 19 44 -5z"/> <path d="M12383 6396 c-4 -8 -19 -16 -33 -18 -25 -3 -25 -5 -28 -103 -2 -75 -6 -102 -17 -108 -12 -6 -15 -36 -15 -151 0 -119 -3 -145 -15 -150 -12 -4 -15 -29 -15 -135 0 -105 -3 -130 -15 -135 -12 -4 -15 -29 -15 -135 0 -105 -3 -130 -15 -135 -12 -4 -15 -29 -15 -135 0 -105 -3 -130 -15 -135 -12 -4 -15 -29 -15 -135 0 -105 -3 -130 -15 -135 -12 -4 -15 -29 -15 -135 0 -105 -3 -130 -15 -135 -12 -4 -15 -31 -15 -150 0 -119 -3 -145 -15 -150 -12 -4 -15 -29 -15 -135 0 -105 -3 -130 -15 -135 -12 -4 -15 -29 -15 -135 0 -105 -3 -130 -15 -135 -12 -4 -15 -29 -15 -135 0 -105 -3 -130 -15 -135 -12 -4 -15 -29 -15 -135 0 -105 -3 -130 -15 -135 -12 -4 -15 -29 -15 -135 0 -105 -3 -130 -15 -135 -12 -4 -15 -29 -15 -135 0 -105 -3 -130 -15 -135 -12 -4 -15 -31 -15 -150 0 -119 -3 -145 -15 -150 -12 -4 -15 -29 -15 -135 0 -105 -3 -130 -15 -135 -12 -4 -15 -29 -15 -135 0 -105 -3 -130 -15 -135 -12 -4 -15 -29 -15 -135 0 -107 -3 -130 -15 -135 -13 -5 -15 -20 -13 -73 l3 -68 544 -3 544 -2 23 24 24 23 -2 2449 -3 2449 -55 3 c-35 2 -58 9 -63 18 -5 9 -25 14 -61 14 -39 0 -55 4 -60 15 -3 10 -19 15 -45 15 -25 0 -41 5 -45 15 -4 11 -21 15 -60 15 -39 0 -55 4 -60 15 -7 19 -72 20 -83 1z"/> <path d="M5770 6080 c-14 -16 -34 -29 -45 -30 -12 0 -32 -13 -45 -30 -14 -16 -35 -29 -48 -30 -12 0 -25 -7 -28 -15 -4 -8 -16 -15 -28 -15 -12 0 -33 -13 -46 -30 -14 -16 -35 -29 -48 -30 -12 0 -25 -7 -28 -15 -4 -8 -16 -15 -28 -15 -12 0 -33 -13 -46 -30 -14 -16 -34 -29 -45 -30 -12 0 -32 -13 -45 -30 -14 -16 -35 -29 -48 -30 -12 0 -25 -7 -28 -15 -4 -8 -16 -15 -28 -15 -12 0 -33 -13 -46 -30 -14 -16 -34 -29 -45 -30 -12 0 -32 -13 -45 -30 -14 -16 -35 -29 -48 -30 -12 0 -25 -7 -28 -15 -4 -8 -16 -15 -28 -15 -12 0 -33 -13 -46 -30 -14 -16 -35 -29 -48 -30 -12 0 -25 -7 -28 -15 -4 -8 -16 -15 -28 -15 -12 0 -33 -13 -46 -30 -14 -16 -34 -29 -45 -30 -12 0 -32 -13 -45 -30 -14 -16 -35 -29 -48 -30 -12 0 -25 -7 -28 -15 -4 -8 -16 -15 -28 -15 -12 0 -33 -13 -46 -30 -14 -16 -34 -29 -45 -30 -12 0 -32 -13 -45 -30 -14 -16 -35 -29 -48 -30 -12 0 -25 -7 -28 -15 -4 -8 -16 -15 -28 -15 -12 0 -33 -13 -46 -30 -14 -16 -34 -29 -45 -30 -12 0 -32 -13 -45 -30 -14 -16 -35 -29 -48 -30 -12 0 -25 -7 -28 -15 -4 -8 -16 -15 -28 -15 -12 0 -33 -13 -46 -30 -14 -16 -35 -29 -48 -30 -12 0 -25 -7 -28 -15 -4 -8 -16 -15 -28 -15 -12 0 -33 -13 -46 -30 -14 -16 -34 -29 -45 -30 -12 0 -32 -13 -45 -30 -14 -16 -35 -29 -48 -30 -12 0 -25 -7 -28 -15 -4 -8 -16 -15 -28 -15 -12 0 -33 -13 -46 -30 -14 -16 -34 -29 -45 -30 -12 0 -32 -13 -45 -30 -14 -16 -35 -29 -48 -30 -12 0 -25 -7 -28 -15 -4 -8 -16 -15 -28 -15 -12 0 -33 -13 -46 -30 -14 -16 -34 -29 -45 -30 -12 0 -32 -13 -45 -30 -14 -16 -35 -29 -48 -30 -12 0 -25 -7 -28 -15 -4 -8 -16 -15 -28 -15 -12 0 -33 -13 -46 -30 -14 -16 -35 -29 -48 -30 -12 0 -25 -7 -28 -15 -4 -8 -16 -15 -28 -15 -12 0 -33 -13 -46 -30 -14 -16 -34 -29 -45 -30 -12 0 -32 -13 -45 -30 -14 -16 -35 -29 -48 -30 -12 0 -25 -7 -28 -15 -4 -8 -16 -15 -28 -15 -12 0 -33 -13 -46 -30 -14 -16 -34 -29 -45 -30 -12 0 -32 -13 -45 -30 -14 -16 -35 -29 -48 -30 -12 0 -25 -7 -28 -15 -4 -8 -16 -15 -28 -15 -12 0 -33 -13 -46 -30 -14 -16 -35 -29 -48 -30 -12 0 -25 -7 -28 -15 -4 -8 -16 -15 -28 -15 -12 0 -33 -13 -46 -30 -14 -16 -34 -29 -45 -30 -12 0 -32 -13 -45 -30 -14 -16 -35 -29 -48 -30 -12 0 -25 -7 -28 -15 -4 -8 -16 -15 -28 -15 -12 0 -33 -13 -46 -30 -14 -16 -34 -29 -45 -30 -12 0 -32 -13 -45 -30 -14 -16 -35 -29 -48 -30 -12 0 -25 -7 -28 -15 -4 -8 -16 -15 -28 -15 -12 0 -33 -13 -46 -30 -14 -16 -34 -29 -44 -30 -10 0 -45 -27 -77 -59 -32 -33 -68 -61 -81 -63 -20 -3 -23 -9 -23 -43 0 -35 3 -40 24 -43 14 -2 36 -17 50 -33 14 -16 35 -29 46 -29 11 -1 31 -14 45 -30 13 -17 33 -30 45 -30 11 -1 31 -14 45 -30 13 -17 33 -30 45 -30 11 -1 31 -14 45 -30 13 -17 33 -30 45 -30 11 -1 31 -14 45 -30 13 -17 33 -30 45 -30 11 -1 31 -14 45 -30 13 -17 33 -30 45 -30 11 -1 31 -14 45 -30 13 -17 33 -30 45 -30 11 -1 31 -14 45 -30 13 -17 33 -30 45 -30 11 -1 31 -14 45 -30 13 -17 33 -30 45 -30 11 -1 31 -14 45 -30 13 -17 32 -30 42 -30 10 0 38 -20 61 -45 24 -25 52 -45 63 -45 10 -1 30 -14 44 -30 13 -17 34 -30 46 -30 12 0 25 -7 28 -16 9 -24 50 -14 54 14 2 13 30 49 63 81 32 32 59 65 59 74 0 9 27 43 60 75 33 33 60 66 60 75 0 9 27 43 60 75 33 33 60 66 60 75 0 9 34 50 75 90 41 41 75 82 75 91 0 9 27 42 60 74 33 33 60 66 60 75 0 9 27 43 60 75 33 33 60 66 60 75 0 9 34 50 75 90 41 41 75 82 75 91 0 9 27 42 60 74 33 33 60 66 60 75 0 9 27 43 60 75 33 33 60 66 60 75 0 9 27 43 60 75 33 33 60 66 60 75 0 14 63 87 75 87 12 0 1065 -1064 1065 -1077 0 -23 42 -63 66 -63 12 0 24 -7 28 -15 7 -20 75 -20 82 0 4 8 17 15 30 15 14 0 27 7 30 15 4 8 16 15 28 15 12 0 33 13 46 30 14 16 35 29 48 30 12 0 25 7 28 15 4 8 16 15 28 15 12 0 33 13 46 30 14 16 35 29 48 30 12 0 25 7 28 15 4 8 17 15 30 15 14 0 27 7 30 15 4 8 16 15 28 15 12 0 33 13 46 30 14 16 35 29 48 30 12 0 25 7 28 15 4 8 16 15 28 15 12 0 33 13 46 30 14 16 35 29 48 30 12 0 25 7 28 15 4 8 16 15 28 15 12 0 33 13 46 30 14 16 35 29 48 30 12 0 25 7 28 15 4 8 16 15 28 15 12 0 33 13 46 30 14 16 35 29 48 30 12 0 25 7 28 15 4 8 16 15 28 15 12 0 33 13 46 30 14 16 35 29 48 30 12 0 25 7 28 15 4 8 16 15 28 15 12 0 33 13 46 30 14 16 35 29 48 30 12 0 25 7 28 15 4 8 16 15 28 15 12 0 33 13 46 30 14 16 35 29 48 30 12 0 25 7 28 15 4 8 16 15 28 15 12 0 33 13 46 30 14 16 35 29 48 30 12 0 25 7 28 15 4 8 16 15 28 15 12 0 33 13 46 30 14 16 35 29 48 30 12 0 25 7 28 15 4 8 16 15 28 15 12 0 33 13 46 30 14 16 35 29 48 30 12 0 25 7 28 15 4 8 16 15 28 15 12 0 33 13 46 30 14 16 35 29 48 30 12 0 25 7 28 15 4 8 16 15 28 15 12 0 33 13 46 30 14 16 35 29 48 30 12 0 25 7 28 15 4 8 16 15 28 15 12 0 33 13 46 30 14 16 35 29 48 30 12 0 25 7 28 15 4 8 16 15 28 15 12 0 33 13 46 30 14 16 35 29 48 30 12 0 25 7 28 15 4 8 16 15 28 15 12 0 33 13 46 30 14 16 35 29 48 30 12 0 25 7 28 15 4 8 16 15 28 15 12 0 33 13 47 29 14 16 36 31 50 33 13 1 25 11 27 21 5 23 -37 67 -64 67 -12 0 -24 7 -28 15 -3 8 -16 15 -30 15 -13 0 -26 7 -30 15 -3 8 -16 15 -30 15 -13 0 -26 7 -30 15 -3 8 -16 15 -30 15 -13 0 -26 7 -30 15 -3 8 -16 15 -30 15 -13 0 -26 7 -30 15 -3 8 -16 15 -30 15 -13 0 -26 7 -30 15 -3 8 -16 15 -30 15 -13 0 -26 7 -30 15 -3 8 -16 15 -30 15 -13 0 -26 7 -30 15 -3 8 -16 15 -30 15 -13 0 -26 7 -30 15 -3 8 -16 15 -30 15 -13 0 -26 7 -30 15 -3 8 -16 15 -30 15 -13 0 -26 7 -30 15 -3 8 -16 15 -30 15 -13 0 -26 7 -30 15 -3 8 -16 15 -30 15 -13 0 -26 7 -30 15 -3 10 -19 15 -45 15 -25 0 -41 5 -45 15 -3 8 -16 15 -30 15 -13 0 -26 7 -30 15 -3 8 -16 15 -30 15 -13 0 -26 7 -30 15 -3 8 -16 15 -30 15 -13 0 -26 7 -30 15 -3 8 -16 15 -30 15 -13 0 -26 7 -30 15 -3 8 -16 15 -30 15 -13 0 -26 7 -30 15 -3 8 -16 15 -30 15 -13 0 -26 7 -30 15 -3 8 -16 15 -30 15 -13 0 -26 7 -30 15 -3 8 -16 15 -30 15 -13 0 -26 7 -30 15 -3 8 -16 15 -30 15 -13 0 -26 7 -30 15 -3 8 -16 15 -30 15 -13 0 -26 7 -30 15 -3 8 -16 15 -30 15 -13 0 -26 7 -30 15 -3 8 -16 15 -30 15 -13 0 -26 7 -30 15 -3 8 -16 15 -30 15 -13 0 -26 7 -30 15 -3 8 -16 15 -30 15 -13 0 -26 7 -30 15 -3 8 -16 15 -30 15 -13 0 -26 7 -30 15 -3 8 -16 15 -30 15 -13 0 -26 7 -30 15 -3 8 -16 15 -30 15 -13 0 -26 7 -30 15 -3 8 -16 15 -30 15 -13 0 -26 7 -30 15 -3 8 -16 15 -30 15 -13 0 -26 7 -30 15 -3 8 -16 15 -30 15 -13 0 -26 7 -30 15 -3 8 -16 15 -30 15 -13 0 -26 7 -30 15 -3 8 -16 15 -30 15 -13 0 -26 7 -30 15 -3 8 -16 15 -30 15 -13 0 -26 7 -30 15 -3 8 -16 15 -30 15 -13 0 -26 7 -30 15 -3 8 -16 15 -30 15 -13 0 -26 7 -30 15 -4 10 -20 15 -54 15 -41 0 -51 -4 -72 -30z m109 -1191 c160 -160 291 -292 291 -295 0 -12 -43 -44 -59 -44 -19 0 -571 542 -571 560 0 4 7 10 15 14 8 3 15 17 15 31 0 14 4 25 9 25 5 0 140 -131 300 -291z"/> <path d="M11754 5796 c-4 -11 -19 -16 -45 -16 -26 0 -42 -5 -45 -15 -4 -8 -17 -15 -30 -15 -14 0 -27 -7 -30 -15 -4 -10 -20 -15 -45 -15 -26 0 -42 -5 -45 -15 -4 -10 -20 -15 -45 -15 -26 0 -42 -5 -45 -15 -4 -8 -17 -15 -30 -15 -12 0 -27 -6 -31 -14 -4 -8 -19 -16 -33 -18 -21 -2 -25 -9 -28 -43 -2 -22 -10 -44 -18 -48 -10 -6 -14 -28 -14 -76 0 -52 -4 -70 -15 -75 -11 -4 -15 -22 -15 -75 0 -52 -4 -70 -15 -75 -11 -4 -15 -22 -15 -75 0 -52 -4 -70 -15 -75 -11 -4 -15 -22 -15 -75 0 -52 -4 -70 -15 -75 -11 -4 -15 -22 -15 -75 0 -52 -4 -70 -15 -75 -11 -4 -15 -22 -15 -75 0 -52 -4 -70 -15 -75 -11 -4 -15 -22 -15 -75 0 -52 -4 -70 -15 -75 -11 -4 -15 -22 -15 -75 0 -52 -4 -70 -15 -75 -11 -4 -15 -22 -15 -75 0 -52 -4 -70 -15 -75 -11 -4 -15 -22 -15 -75 0 -52 -4 -70 -15 -75 -11 -4 -15 -22 -15 -75 0 -52 -4 -70 -15 -75 -11 -4 -15 -22 -15 -75 0 -52 -4 -70 -15 -75 -11 -4 -15 -22 -15 -75 0 -52 -4 -70 -15 -75 -11 -4 -15 -22 -15 -75 0 -52 -4 -70 -15 -75 -11 -4 -15 -22 -15 -75 0 -52 -4 -70 -15 -75 -11 -4 -15 -22 -15 -75 0 -52 -4 -70 -15 -75 -11 -4 -15 -22 -15 -75 0 -52 -4 -70 -15 -75 -11 -4 -15 -22 -15 -75 0 -52 -4 -70 -15 -75 -11 -4 -15 -22 -15 -75 0 -52 -4 -70 -15 -75 -11 -4 -15 -20 -15 -56 0 -62 -23 -90 -75 -90 -22 0 -38 -6 -41 -15 -4 -10 -20 -15 -45 -15 -26 0 -42 -5 -45 -15 -4 -8 -17 -15 -30 -15 -14 0 -27 -7 -30 -15 -4 -10 -20 -15 -45 -15 -26 0 -42 -5 -45 -15 -4 -8 -17 -15 -30 -15 -14 0 -27 -7 -30 -15 -4 -10 -20 -15 -45 -15 -26 0 -42 -5 -45 -15 -4 -10 -20 -15 -45 -15 -26 0 -42 -5 -45 -15 -4 -8 -17 -15 -30 -15 -14 0 -27 -7 -30 -15 -4 -10 -20 -15 -45 -15 -26 0 -42 -5 -45 -15 -4 -8 -17 -15 -30 -15 -14 0 -27 -7 -30 -15 -4 -10 -20 -15 -45 -15 -26 0 -42 -5 -45 -15 -4 -8 -17 -15 -30 -15 -14 0 -27 -7 -30 -15 -4 -10 -20 -15 -45 -15 -26 0 -42 -5 -45 -15 -4 -10 -20 -15 -45 -15 -26 0 -42 -5 -45 -15 -4 -8 -17 -15 -30 -15 -14 0 -27 -7 -30 -15 -4 -10 -20 -15 -45 -15 -26 0 -42 -5 -45 -15 -4 -8 -17 -15 -30 -15 -14 0 -27 -7 -30 -15 -4 -10 -20 -15 -45 -15 -26 0 -42 -5 -45 -15 -4 -8 -17 -15 -30 -15 -14 0 -27 -7 -30 -15 -4 -10 -20 -15 -45 -15 -26 0 -42 -5 -45 -15 -4 -10 -20 -15 -45 -15 -26 0 -42 -5 -45 -15 -4 -8 -17 -15 -30 -15 -14 0 -27 -7 -30 -15 -4 -10 -20 -15 -45 -15 -26 0 -42 -5 -45 -15 -4 -8 -17 -15 -30 -15 -14 0 -27 -7 -30 -15 -4 -10 -20 -15 -45 -15 -26 0 -42 -5 -45 -15 -4 -8 -17 -15 -30 -15 -14 0 -27 -7 -30 -15 -4 -10 -20 -15 -45 -15 -26 0 -42 -5 -45 -15 -4 -10 -20 -15 -45 -15 -26 0 -42 -5 -45 -15 -4 -8 -17 -15 -30 -15 -14 0 -27 -7 -30 -15 -4 -10 -20 -15 -45 -15 -26 0 -42 -5 -45 -15 -4 -8 -17 -15 -30 -15 -14 0 -27 -7 -30 -15 -4 -10 -20 -15 -45 -15 -26 0 -42 -5 -45 -15 -4 -10 -20 -15 -45 -15 -26 0 -42 -5 -45 -15 -4 -8 -17 -15 -30 -15 -14 0 -27 -7 -30 -15 -4 -10 -20 -15 -45 -15 -26 0 -42 -5 -45 -15 -4 -8 -17 -15 -30 -15 -14 0 -27 -7 -30 -15 -4 -10 -20 -15 -45 -15 -26 0 -42 -5 -45 -15 -4 -8 -17 -15 -30 -15 -14 0 -27 -7 -30 -15 -4 -10 -20 -15 -45 -15 -26 0 -42 -5 -45 -15 -4 -10 -20 -15 -45 -15 -26 0 -42 -5 -45 -15 -4 -8 -17 -15 -30 -15 -14 0 -27 -7 -30 -15 -4 -10 -20 -15 -45 -15 -26 0 -42 -5 -45 -15 -4 -8 -17 -15 -30 -15 -14 0 -27 -7 -30 -15 -4 -10 -20 -15 -45 -15 -26 0 -42 -5 -45 -15 -4 -8 -17 -15 -30 -15 -14 0 -27 -7 -30 -15 -4 -10 -20 -15 -45 -15 -26 0 -42 -5 -45 -15 -4 -10 -20 -15 -45 -15 -26 0 -42 -5 -45 -15 -4 -8 -17 -15 -30 -15 -14 0 -27 -7 -30 -15 -4 -10 -20 -15 -45 -15 -26 0 -42 -5 -45 -15 -4 -8 -17 -15 -30 -15 -14 0 -27 -7 -30 -15 -4 -10 -20 -15 -45 -15 -26 0 -42 -5 -45 -15 -4 -10 -20 -15 -45 -15 -26 0 -42 -5 -45 -15 -4 -8 -15 -15 -26 -15 -22 0 -132 -103 -121 -114 3 -3 23 -6 44 -6 23 0 39 -5 43 -15 3 -10 19 -15 45 -15 25 0 41 -5 45 -15 3 -10 19 -15 45 -15 25 0 41 -5 45 -15 4 -11 21 -15 60 -15 39 0 55 -4 60 -15 3 -10 19 -15 45 -15 25 0 41 -5 45 -15 3 -10 19 -15 45 -15 25 0 41 -5 45 -15 3 -10 19 -15 45 -15 25 0 41 -5 45 -15 4 -11 21 -15 60 -15 39 0 55 -4 60 -15 3 -10 19 -15 45 -15 25 0 41 -5 45 -15 3 -10 19 -15 45 -15 25 0 41 -5 45 -15 3 -10 19 -15 45 -15 25 0 41 -5 45 -15 3 -10 19 -15 45 -15 25 0 41 -5 45 -15 4 -11 21 -15 60 -15 39 0 55 -4 60 -15 3 -10 19 -15 45 -15 25 0 41 -5 45 -15 3 -10 19 -15 45 -15 25 0 41 -5 45 -15 3 -10 19 -15 45 -15 25 0 41 -5 45 -15 4 -11 21 -15 60 -15 39 0 55 -4 60 -15 3 -10 19 -15 45 -15 25 0 41 -5 45 -15 3 -10 19 -15 45 -15 25 0 41 -5 45 -15 3 -10 19 -15 45 -15 25 0 41 -5 45 -15 4 -11 21 -15 60 -15 39 0 55 -4 60 -15 3 -10 19 -15 45 -15 25 0 41 -5 45 -15 3 -10 19 -15 45 -15 25 0 41 -5 45 -15 3 -10 19 -15 45 -15 25 0 41 -5 45 -15 3 -10 19 -15 45 -15 25 0 41 -5 45 -15 4 -11 21 -15 60 -15 39 0 55 -4 60 -15 3 -10 19 -15 45 -15 25 0 41 -5 45 -15 3 -10 19 -15 45 -15 25 0 41 -5 45 -15 10 -26 38 -16 83 30 23 25 50 45 59 45 9 0 57 41 106 90 49 50 96 90 105 90 9 0 49 34 90 75 40 41 81 75 90 75 8 0 56 40 105 90 49 49 96 90 105 90 9 0 49 34 90 75 40 41 81 75 90 75 9 0 49 34 90 75 40 41 81 75 90 75 8 0 56 41 105 90 49 50 96 90 105 90 9 0 49 34 90 75 40 41 81 75 90 75 8 0 56 41 105 90 49 50 96 90 105 90 9 0 49 34 90 75 40 41 81 75 90 75 9 0 49 34 90 75 40 41 81 75 89 75 9 0 34 17 55 39 39 38 39 39 39 119 0 62 3 81 15 86 12 4 15 27 15 120 0 92 3 115 15 120 12 4 15 29 15 135 0 105 3 130 15 135 12 4 15 27 15 120 0 92 3 115 15 120 12 4 15 29 15 135 0 105 3 130 15 135 12 4 15 27 15 120 0 92 3 115 15 120 12 4 15 27 15 120 0 92 3 115 15 120 12 4 15 29 15 135 0 105 3 130 15 135 12 4 15 27 15 120 0 92 3 115 15 120 12 4 15 27 15 120 0 92 3 115 15 120 12 4 15 29 15 135 0 105 3 130 15 135 12 4 15 27 15 120 0 92 3 115 15 120 12 4 15 27 15 120 0 92 3 115 15 120 12 4 15 29 15 135 0 105 3 130 15 135 12 4 15 27 15 120 0 92 3 115 15 120 12 4 15 29 15 135 0 108 3 130 16 135 24 9 14 50 -14 54 -13 2 -25 -3 -28 -12z"/> <path d="M10884 5766 c-3 -9 -17 -16 -30 -16 -14 0 -27 -7 -30 -15 -4 -8 -17 -15 -30 -15 -14 0 -27 -7 -30 -15 -4 -8 -17 -15 -30 -15 -14 0 -27 -7 -30 -15 -4 -8 -17 -15 -30 -15 -14 0 -27 -7 -30 -15 -4 -8 -17 -15 -30 -15 -14 0 -27 -7 -30 -15 -4 -8 -17 -15 -30 -15 -14 0 -27 -7 -30 -15 -4 -8 -16 -15 -28 -15 -12 0 -33 -13 -46 -30 -14 -16 -35 -29 -48 -30 -12 0 -25 -7 -28 -15 -4 -8 -17 -15 -30 -15 -14 0 -27 -7 -30 -15 -4 -8 -17 -15 -30 -15 -14 0 -27 -7 -30 -15 -4 -8 -17 -15 -30 -15 -14 0 -27 -7 -30 -15 -4 -8 -17 -15 -30 -15 -14 0 -27 -7 -30 -15 -4 -8 -17 -15 -30 -15 -14 0 -27 -7 -30 -15 -4 -8 -17 -15 -30 -15 -14 0 -27 -7 -30 -15 -4 -8 -17 -15 -30 -15 -14 0 -27 -7 -30 -15 -4 -8 -17 -15 -30 -15 -14 0 -27 -7 -30 -15 -4 -8 -17 -15 -30 -15 -14 0 -27 -7 -30 -15 -4 -8 -16 -15 -28 -15 -12 0 -33 -13 -46 -30 -14 -16 -35 -29 -48 -30 -12 0 -25 -7 -28 -15 -4 -8 -17 -15 -30 -15 -14 0 -27 -7 -30 -15 -4 -8 -17 -15 -30 -15 -14 0 -27 -7 -30 -15 -4 -8 -17 -15 -30 -15 -14 0 -27 -7 -30 -15 -4 -8 -17 -15 -30 -15 -14 0 -27 -7 -30 -15 -4 -8 -17 -15 -30 -15 -14 0 -27 -7 -30 -15 -4 -8 -17 -15 -30 -15 -14 0 -27 -7 -30 -15 -4 -8 -17 -15 -30 -15 -14 0 -27 -7 -30 -15 -4 -8 -17 -15 -30 -15 -14 0 -27 -7 -30 -15 -4 -8 -16 -15 -28 -15 -12 0 -33 -13 -46 -30 -14 -16 -35 -29 -48 -30 -12 0 -25 -7 -28 -15 -4 -8 -17 -15 -30 -15 -14 0 -27 -7 -30 -15 -4 -8 -17 -15 -30 -15 -14 0 -27 -7 -30 -15 -4 -8 -17 -15 -30 -15 -14 0 -27 -7 -30 -15 -4 -8 -17 -15 -30 -15 -14 0 -27 -7 -30 -15 -4 -8 -17 -15 -30 -15 -14 0 -27 -7 -30 -15 -4 -8 -17 -15 -30 -15 -14 0 -27 -7 -30 -15 -4 -8 -17 -15 -30 -15 -14 0 -27 -7 -30 -15 -4 -8 -17 -15 -30 -15 -14 0 -27 -7 -30 -15 -4 -8 -17 -15 -30 -15 -14 0 -27 -7 -30 -15 -4 -8 -16 -15 -28 -15 -12 0 -33 -13 -46 -30 -14 -16 -35 -29 -48 -30 -12 0 -25 -7 -28 -15 -4 -8 -17 -15 -30 -15 -14 0 -27 -7 -30 -15 -4 -8 -17 -15 -30 -15 -14 0 -27 -7 -30 -15 -4 -8 -17 -15 -30 -15 -14 0 -27 -7 -30 -15 -4 -8 -17 -15 -30 -15 -14 0 -27 -7 -30 -15 -4 -8 -17 -15 -30 -15 -14 0 -27 -7 -30 -15 -4 -8 -17 -15 -30 -15 -14 0 -27 -7 -30 -15 -4 -8 -17 -15 -30 -15 -14 0 -27 -7 -30 -15 -4 -8 -17 -15 -30 -15 -14 0 -27 -7 -30 -15 -4 -8 -16 -15 -28 -15 -12 0 -33 -13 -46 -30 -14 -16 -35 -29 -48 -30 -12 0 -25 -7 -28 -15 -4 -8 -15 -15 -26 -15 -31 0 -68 -41 -68 -75 0 -32 36 -75 64 -75 8 0 49 -34 89 -75 41 -41 82 -75 91 -75 9 0 42 -27 74 -60 33 -33 66 -60 75 -60 9 0 50 -34 90 -75 41 -41 82 -75 91 -75 9 0 42 -27 74 -60 33 -33 66 -60 75 -60 9 0 50 -34 90 -75 41 -41 81 -75 90 -75 17 0 147 -124 147 -141 0 -5 -469 -10 -1227 -11 l-1228 -3 0 -925 0 -925 23 -3 c13 -2 25 3 28 12 4 11 19 16 45 16 26 0 42 5 45 15 4 8 17 15 30 15 14 0 27 7 30 15 4 10 20 15 45 15 26 0 42 5 45 15 4 10 20 15 45 15 26 0 42 5 45 15 4 8 17 15 30 15 14 0 27 7 30 15 4 10 20 15 45 15 26 0 42 5 45 15 4 8 17 15 30 15 14 0 27 7 30 15 4 10 20 15 45 15 26 0 42 5 45 15 4 8 17 15 30 15 14 0 27 7 30 15 4 10 20 15 45 15 26 0 42 5 45 15 4 10 20 15 45 15 26 0 42 5 45 15 4 8 17 15 30 15 14 0 27 7 30 15 4 10 20 15 45 15 26 0 42 5 45 15 4 8 17 15 30 15 14 0 27 7 30 15 4 10 20 15 45 15 26 0 42 5 45 15 4 8 17 15 30 15 14 0 27 7 30 15 4 10 20 15 45 15 26 0 42 5 45 15 4 8 17 15 30 15 14 0 27 7 30 15 4 10 20 15 45 15 26 0 42 5 45 15 4 10 20 15 45 15 26 0 42 5 45 15 4 8 17 15 30 15 14 0 27 7 30 15 4 10 20 15 45 15 26 0 42 5 45 15 4 8 17 15 30 15 14 0 27 7 30 15 4 10 20 15 45 15 26 0 42 5 45 15 4 8 17 15 30 15 14 0 27 7 30 15 4 10 20 15 45 15 26 0 42 5 45 15 4 10 20 15 45 15 26 0 42 5 45 15 4 8 17 15 30 15 14 0 27 7 30 15 4 10 20 15 45 15 26 0 42 5 45 15 4 8 17 15 30 15 14 0 27 7 30 15 4 10 20 15 45 15 26 0 42 5 45 15 4 8 17 15 30 15 14 0 27 7 30 15 4 10 20 15 45 15 26 0 42 5 45 15 4 10 20 15 45 15 26 0 42 5 45 15 4 8 17 15 30 15 14 0 27 7 30 15 4 10 20 15 45 15 26 0 42 5 45 15 4 8 17 15 30 15 14 0 27 7 30 15 4 10 20 15 45 15 26 0 42 5 45 15 4 8 17 15 30 15 14 0 27 7 30 15 4 10 20 15 45 15 26 0 42 5 45 15 4 8 17 15 30 15 14 0 27 7 30 15 4 10 20 15 45 15 26 0 42 5 45 15 4 10 20 15 45 15 26 0 42 5 45 15 4 8 17 15 30 15 14 0 27 7 30 15 4 10 20 15 45 15 26 0 42 5 45 15 4 8 17 15 30 15 14 0 27 7 30 15 4 10 20 15 45 15 26 0 42 5 45 15 4 8 17 15 30 15 14 0 27 7 30 15 4 10 20 15 45 15 22 0 41 6 46 14 4 8 19 16 33 18 18 2 26 10 28 28 2 14 10 29 18 33 9 5 14 26 14 61 0 39 4 55 15 60 11 4 15 21 15 60 0 39 4 55 15 60 11 4 15 21 15 60 0 39 4 55 15 60 10 3 15 19 15 45 0 25 5 41 15 45 11 4 15 21 15 60 0 39 4 55 15 60 11 4 15 21 15 60 0 39 4 55 15 60 11 4 15 21 15 60 0 39 4 55 15 60 11 4 15 21 15 60 0 39 4 55 15 60 10 3 15 19 15 45 0 25 5 41 15 45 11 4 15 21 15 60 0 39 4 55 15 60 11 4 15 21 15 60 0 39 4 55 15 60 11 4 15 21 15 60 0 39 4 55 15 60 11 4 15 21 15 60 0 39 4 55 15 60 10 3 15 19 15 45 0 25 5 41 15 45 11 4 15 21 15 60 0 39 4 55 15 60 11 4 15 21 15 60 0 39 4 55 15 60 11 4 15 21 15 60 0 39 4 55 15 60 11 4 15 21 15 60 0 39 4 55 15 60 10 3 15 19 15 45 0 25 5 41 15 45 11 4 15 21 15 60 0 39 4 55 15 60 11 4 15 21 15 60 0 39 4 55 15 60 11 4 15 21 15 60 0 39 4 55 15 60 11 4 15 21 15 60 0 39 4 55 15 60 10 3 15 19 15 45 0 25 5 41 15 45 11 4 15 21 15 60 0 39 4 55 15 60 11 4 15 20 15 55 0 50 -15 76 -26 47z m-934 -1406 c0 -45 -27 -80 -60 -80 -11 0 -23 -7 -26 -15 -4 -8 -17 -15 -30 -15 -14 0 -27 -7 -30 -15 -4 -8 -17 -15 -30 -15 -14 0 -27 -7 -30 -15 -4 -8 -17 -15 -30 -15 -14 0 -27 -7 -30 -15 -4 -8 -17 -15 -30 -15 -14 0 -27 -7 -30 -15 -4 -8 -17 -15 -30 -15 -14 0 -27 -7 -30 -15 -4 -8 -17 -15 -30 -15 -14 0 -27 -7 -30 -15 -4 -8 -17 -15 -30 -15 -14 0 -27 -7 -30 -15 -4 -8 -17 -15 -30 -15 -14 0 -27 -7 -30 -15 -4 -8 -17 -15 -30 -15 -14 0 -27 -7 -30 -15 -4 -8 -17 -15 -30 -15 -14 0 -27 -7 -30 -15 -4 -8 -17 -15 -30 -15 -14 0 -27 -7 -30 -15 -16 -40 -94 1 -94 50 0 20 5 25 25 25 14 0 28 7 31 15 4 8 17 15 30 15 14 0 27 7 30 15 4 8 17 15 30 15 14 0 27 7 30 15 4 8 17 15 30 15 14 0 27 7 30 15 4 8 17 15 30 15 14 0 27 7 30 15 4 8 17 15 30 15 14 0 27 7 30 15 4 8 17 15 30 15 14 0 27 7 30 15 4 8 17 15 30 15 14 0 27 7 30 15 4 8 17 15 30 15 14 0 27 7 30 15 4 8 17 15 30 15 14 0 27 7 30 15 4 8 17 15 30 15 14 0 27 7 30 15 4 8 17 15 30 15 14 0 27 7 30 15 4 8 17 15 30 15 14 0 27 7 30 15 4 9 19 15 35 15 27 0 29 -3 29 -40z"/> </g> </svg> 